<svg width="60" height="60" viewBox="0 0 60 60" fill="none" xmlns="http://www.w3.org/2000/svg">
<rect width="60" height="60" rx="30" fill="url(#paint0_linear_6807_8177)"/>
<path d="M45.0476 30.8371L43.604 29.3929L31.1951 16.9787L32.0328 16.1407C33.4359 14.735 35.2938 13.8757 37.2731 13.7169C39.2524 13.5581 41.2234 14.1103 42.8325 15.2743C44.4415 16.4383 45.5832 18.1379 46.0527 20.0681C46.5221 21.9983 46.2885 24.0326 45.3938 25.8061C45.1567 26.2745 44.8762 26.7196 44.5561 27.1357C44.4883 27.2242 44.4385 27.3251 44.4097 27.4327C44.3808 27.5404 44.3734 27.6526 44.388 27.7631C44.4025 27.8737 44.4386 27.9802 44.4943 28.0767C44.55 28.1733 44.6241 28.2579 44.7125 28.3258C44.8009 28.3936 44.9017 28.4434 45.0093 28.4723C45.117 28.5011 45.2292 28.5085 45.3396 28.494C45.4501 28.4795 45.5566 28.4433 45.6531 28.3876C45.7496 28.3319 45.8342 28.2577 45.902 28.1693C47.4432 26.143 48.1586 23.6073 47.9041 21.0739C47.6495 18.5405 46.4439 16.198 44.5304 14.5191C42.617 12.8402 40.1382 11.95 37.5943 12.028C35.0504 12.106 32.6308 13.1465 30.8237 14.9395L16.9684 28.8006L16.1307 27.9626C14.728 26.5581 13.8711 24.6998 13.7135 22.7207C13.5559 20.7416 14.1079 18.771 15.2706 17.162C16.4333 15.553 18.1307 14.4109 20.0587 13.9401C21.9866 13.4694 24.0191 13.7009 25.792 14.5931C26.2597 14.8297 26.7038 15.1103 27.1183 15.4311C27.2392 15.5294 27.3851 15.592 27.5396 15.6119C27.6941 15.6318 27.8511 15.6082 27.9929 15.5438C28.1347 15.4794 28.2558 15.3767 28.3425 15.2472C28.4292 15.1178 28.4781 14.9667 28.4838 14.811V14.7272C28.4799 14.602 28.448 14.4794 28.3905 14.3682C28.333 14.257 28.2513 14.1601 28.1515 14.0847C27.8384 13.845 27.5121 13.623 27.1742 13.4198C26.9703 13.2997 26.7609 13.188 26.5515 13.0818C26.2067 12.9016 25.8514 12.7421 25.4876 12.6041C23.8971 12.0269 22.1868 11.8597 20.5146 12.1181C18.6726 12.3951 16.945 13.1829 15.5276 14.3919C15.3265 14.5651 15.1311 14.7467 14.9412 14.9367C13.0579 16.8224 12 19.379 12 22.0446C12 24.7103 13.0579 27.2669 14.9412 29.1526L16.6166 30.8287L28.7937 43.0138L27.956 43.8518C26.5512 45.2507 24.6948 46.1042 22.7188 46.2596C20.7428 46.415 18.7759 45.8623 17.1699 44.7002C15.5638 43.5381 14.4232 41.8424 13.952 39.9163C13.4808 37.9902 13.7097 35.9592 14.5978 34.1864C14.8349 33.718 15.1154 33.2729 15.4354 32.8568C15.5724 32.6782 15.6329 32.4525 15.6036 32.2293C15.5743 32.0062 15.4575 31.8038 15.2791 31.6667C15.1006 31.5297 14.875 31.4691 14.6519 31.4985C14.4289 31.5278 14.2266 31.6446 14.0896 31.8232C13.7046 32.3241 13.3689 32.8611 13.0871 33.4266C12.1495 35.2957 11.8177 37.4107 12.1378 39.4773C12.4208 41.3124 13.2063 43.0333 14.407 44.4493C15.6077 45.8652 17.1769 46.921 18.9406 47.4995C20.7043 48.078 22.5937 48.1567 24.3993 47.7268C26.205 47.297 27.8564 46.3754 29.1707 45.0642L30.483 43.7485C30.5361 43.7143 30.5856 43.675 30.631 43.6312C30.6755 43.5863 30.7148 43.5366 30.7483 43.4831L43.0343 31.1918L43.872 32.0299C45.2771 33.4336 46.136 35.2923 46.2947 37.2724C46.4534 39.2526 45.9015 41.2245 44.738 42.8342C43.5745 44.4439 41.8756 45.5861 39.9463 46.0557C38.0169 46.5254 35.9834 46.2917 34.2107 45.3966C33.743 45.16 33.2989 44.8794 32.8844 44.5586C32.7056 44.4215 32.4796 44.3611 32.2563 44.3907C32.0329 44.4203 31.8305 44.5375 31.6935 44.7164C31.5565 44.8953 31.4961 45.1214 31.5257 45.3448C31.5553 45.5682 31.6724 45.7708 31.8513 45.9078C32.3513 46.2925 32.8871 46.6284 33.4512 46.9107C34.8485 47.6106 36.3897 47.9751 37.9524 47.975C38.4693 47.9748 38.9855 47.9356 39.4965 47.8577C41.612 47.5434 43.5701 46.5561 45.0811 45.0419C46.9565 43.1522 48.0062 40.5955 48 37.9325C47.9937 35.2696 46.9319 32.7179 45.0476 30.8371ZM29.9916 41.807L19.2637 31.0717H25.9177L29.3689 27.619V36.4631L34.7887 31.041H40.7502L29.9916 41.807ZM41.1607 29.3454H34.0851L31.0722 32.3651V23.5182L25.2084 29.3845H18.7862L29.9776 18.1827L41.1607 29.3454Z" fill="white"/>
<defs>
<linearGradient id="paint0_linear_6807_8177" x1="0" y1="30" x2="60" y2="30" gradientUnits="userSpaceOnUse">
<stop stop-color="#5525A5"/>
<stop offset="1" stop-color="#6F45B2"/>
</linearGradient>
</defs>
</svg>
